:SAMPLES-PER-SECOND 30
:FULLY-SPECIFIED
:DEGREES
413
root  67.1098 39.1256 1.47955 -166.188 -80.0104 166.424
RightUpLeg  -22.6825 -17.9775 -7.695
RightLeg  8.36661 -14.727 1.90113
RightFoot  -1.64837 -0.350209 3.98857
RightToes  0.00048216 0.542163 -0.142577
Spine  14.5043 -2.02831 -4.74778
Spine1  4.71152 -4.43047 7.13526
HEad  -12.3508 -6.08717 10.4656
LeftShoulder1  9.03678 -13.2898 -46.9549
LeftArm  -2.19194 -0.432758 -31.5055
LeftForeArm  30.7681 -24.7841 -3.67008
LeftHand  -0.25398 0.0180481 5.50724
RightShoulder  5.03749 9.07352 34.1034
RightArm  -2.15868 -27.2476 40.1047
RightForeArm  10.7379 15.2763 6.15534
RightHand  -0.764023 1.51331 -12.9986
LeftUpLeg  10.2557 9.09657 3.3678
LeftLeg  9.12554 36.6969 -2.16395
LeftFoot  -13.2576 -0.0993953 -10.6647
LeftToes  1.06246e-005 4.65856e-005 -8.18502e-006
414
root  66.2042 38.9717 0.901027 -166.737 -79.7922 167.088
RightUpLeg  -23.1263 -17.9931 -6.82634
RightLeg  9.24267 -14.4126 1.50019
RightFoot  -0.650573 -0.240932 2.55616
RightToes  0.00048216 0.542163 -0.142577
Spine  14.2186 -2.07137 -3.86268
Spine1  4.87541 -4.43573 7.24693
HEad  -12.1651 -5.94002 9.47146
LeftShoulder1  9.035 -13.3495 -46.7753
LeftArm  -2.29661 -0.0826158 -32.394
LeftForeArm  32.4814 -26.2223 -3.90166
LeftHand  -0.25398 0.0180481 5.50724
RightShoulder  5.04171 9.08487 34.1009
RightArm  -4.32564 -26.7577 39.4637
RightForeArm  12.1026 14.1358 6.21389
RightHand  -0.774966 1.62417 -12.9795
LeftUpLeg  11.7526 9.41723 4.47709
LeftLeg  9.40072 36.3713 -1.86445
LeftFoot  -13.1422 -0.104996 -11.6041
LeftToes  1.06246e-005 4.65856e-005 -8.18502e-006
415
root  65.189 38.8487 0.216643 -170.439 -79.503 171.055
RightUpLeg  -23.732 -19.3391 -4.41494
RightLeg  11.3373 -11.8506 0.873447
RightFoot  1.48216 0.00330499 0.0844247
RightToes  0.00048216 0.542163 -0.142577
Spine  13.601 -2.10866 -2.12967
Spine1  4.99454 -4.31214 7.22936
HEad  -11.7351 -6.06459 8.39064
LeftShoulder1  9.00546 -13.3561 -46.5998
LeftArm  -2.07114 1.04977 -32.8865
LeftForeArm  33.7149 -27.4773 -4.10828
LeftHand  -0.25398 0.0180481 5.50724
RightShoulder  5.00009 8.96583 34.149
RightArm  -6.06707 -26.0985 38.7149
RightForeArm  12.4938 13.1571 6.225
RightHand  -0.828492 1.75692 -13.6163
LeftUpLeg  13.3254 10.7497 6.81396
LeftLeg  9.9694 34.5073 -1.49233
LeftFoot  -12.5401 -0.0660224 -13.4447
LeftToes  1.06246e-005 4.65856e-005 -8.18502e-006
416
root  64.0571 38.7235 -0.561891 -176.638 -78.6286 177.351
RightUpLeg  -24.6641 -22.1875 -0.684948
RightLeg  14.7033 -6.82146 -0.0777701
RightFoot  3.42301 0.285082 -2.03984
RightToes  0.00048216 0.542163 -0.142577
Spine  12.8661 -2.11705 0.436428
Spine1  5.23599 -3.94757 6.74427
HEad  -11.2051 -6.02136 7.20913
LeftShoulder1  8.97999 -13.2742 -46.6971
LeftArm  -2.23528 3.04234 -32.6623
LeftForeArm  34.6241 -28.8348 -4.35946
LeftHand  -0.25398 0.0180481 5.50724
RightShoulder  4.99574 8.92113 34.2569
RightArm  -7.47376 -25.0976 37.9095
RightForeArm  11.9692 12.3619 6.19511
RightHand  -0.858072 1.50722 -14.5769
LeftUpLeg  15.4914 15.2247 11.0007
LeftLeg  11.1848 28.4609 -0.753181
LeftFoot  -11.4817 0.053677 -18.5641
LeftToes  1.06246e-005 4.65856e-005 -8.18502e-006
417
root  62.8547 38.6096 -1.41642 177.834 -76.9226 -177.355
RightUpLeg  -25.1255 -23.9052 2.49873
RightLeg  18.7074 -2.57806 -0.966463
RightFoot  3.03569 0.416413 -3.14329
RightToes  0.00048216 0.542163 -0.142577
Spine  12.232 -2.03585 3.18489
Spine1  5.64627 -3.31315 5.65609
HEad  -10.565 -5.50474 6.00107
LeftShoulder1  8.95246 -13.1536 -46.8952
LeftArm  -2.92289 5.75985 -31.911
LeftForeArm  35.1002 -30.0353 -4.60364
LeftHand  -0.25398 0.0180481 5.50724
RightShoulder  5.07513 9.04081 34.5029
RightArm  -9.00222 -23.4613 37.1924
RightForeArm  11.8304 11.4734 6.07637
RightHand  -0.851114 1.19604 -15.1015
LeftUpLeg  17.6316 23.3909 16.4288
LeftLeg  14.3577 19.924 2.14612
LeftFoot  -9.02635 0.540961 -23.3965
LeftToes  1.06246e-005 4.65856e-005 -8.18502e-006
418
root  61.6845 38.5909 -2.31829 174.88 -74.9224 -174.707
RightUpLeg  -24.0088 -22.4365 3.56578
RightLeg  21.7197 -2.24075 -1.242
RightFoot  0.406166 0.395321 -3.82022
RightToes  0.00048216 0.542163 -0.142577
Spine  11.8291 -1.83942 5.26294
Spine1  5.87022 -2.6024 4.54357
HEad  -9.6993 -4.63004 4.94243
LeftShoulder1  8.88154 -13.0375 -46.8485
LeftArm  -3.66576 8.75559 -31.2056
LeftForeArm  34.8086 -30.3142 -4.68286
LeftHand  -0.25398 0.0180481 5.50724
RightShoulder  5.177 9.18856 34.8304
RightArm  -10.4156 -21.1836 36.6911
RightForeArm  12.3656 10.723 5.86818
RightHand  -0.880409 1.44194 -15.084
LeftUpLeg  16.9244 27.7798 19.4534
LeftLeg  20.9941 16.9338 7.80748
LeftFoot  -3.7325 1.37605 -20.9813
LeftToes  1.06246e-005 4.65856e-005 -8.18502e-006
